<svg xmlns="http://www.w3.org/2000/svg" viewBox="0 0 100 100"><path class="inner-shape" d="M64.137 18.013L56.16 18c-8.963 0-14.755 5.942-14.755 15.14v6.98h-8.02c-.694 0-1.256.562-1.256 1.255V51.49c0 .692.56 1.254 1.254 1.254h8.02v25.52c0 .693.562 1.255 1.255 1.255h10.464c.694 0 1.255-.563 1.255-1.256v-25.52h9.377c.694 0 1.255-.562 1.255-1.255l.004-10.115a1.256 1.256 0 0 0-1.255-1.255h-9.38v-5.917c0-2.844.677-4.288 4.382-4.288l5.374-.002c.692 0 1.253-.562 1.253-1.254v-9.393c0-.692-.56-1.253-1.253-1.254z" fill="#fff"/></svg>