<svg viewBox="0 0 100 100" xmlns="http://www.w3.org/2000/svg"><path fill="#8e8e8e" d="M0 0h100v100H0V0zm91.816 76.15c-.732-4.563-3.708-8.393-12.52-11.967-3.06-1.407-6.473-2.415-7.49-4.734-.36-1.35-.41-2.112-.18-2.93.655-2.65 3.82-3.478 6.33-2.718 1.616.542 3.147 1.787 4.07 3.774 4.314-2.795 4.305-2.776 7.318-4.696-1.103-1.71-1.692-2.5-2.414-3.232-2.595-2.9-6.132-4.39-11.787-4.277-.98.124-1.968.257-2.947.38-2.823.714-5.513 2.197-7.09 4.184-4.735 5.37-3.385 14.77 2.375 18.64 5.676 4.26 14.012 5.228 15.077 9.21 1.036 4.878-3.584 6.456-8.175 5.895-3.384-.705-5.266-2.425-7.3-5.553-3.745 2.168-3.745 2.168-7.595 4.383.912 1.996 1.872 2.9 3.403 4.63 7.243 7.347 25.37 6.986 28.622-4.136.132-.38 1.007-2.928.304-6.854zM54.363 45.96H45.01c0 8.08-.038 16.103-.038 24.183 0 5.142.266 9.857-.57 11.302-1.37 2.842-4.915 2.49-6.53 1.94-1.646-.81-2.482-1.96-3.452-3.585-.266-.465-.466-.827-.532-.855-2.538 1.55-5.067 3.108-7.605 4.658 1.265 2.595 3.128 4.848 5.514 6.31 3.564 2.14 8.355 2.796 13.365 1.646 3.26-.952 6.074-2.92 7.547-5.914 2.128-3.925 1.672-8.678 1.653-13.935.048-8.573 0-17.147 0-25.75z"/></svg>