<svg xmlns="http://www.w3.org/2000/svg" viewBox="0 0 300 300"><path d="M238.553 162.694v71.558h-41.485v-66.765c0-16.772-6-28.218-21.016-28.218-11.463 0-18.285 7.713-21.286 15.174-1.094 2.668-1.376 6.38-1.376 10.115v69.692h-41.498s.558-113.078 0-124.794h41.494v17.69c-.084.13-.193.274-.273.402h.273v-.403c5.513-8.49 15.36-20.62 37.396-20.62 27.303 0 47.77 17.835 47.77 56.167zM68.483 49.3C54.285 49.3 45 58.614 45 70.86c0 11.98 9.017 21.573 22.932 21.573h.277c14.47 0 23.47-9.59 23.47-21.572-.272-12.245-9-21.557-23.198-21.557zM47.464 234.253h41.482V109.458H47.465v124.794z" fill="#fff"/></svg>