<svg viewBox="0 0 191 100" xmlns="http://www.w3.org/2000/svg"><path d="M21.342 78.684l8.33-42.63h19.26c8.328.525 12.493 4.735 12.493 12.104 0 12.63-9.89 20-18.74 19.474h-9.37l-2.082 11.052h-9.89zm14.055-18.947L38 43.947h6.767c3.644 0 6.247 1.58 6.247 4.737-.52 8.948-4.685 10.527-9.37 11.053h-6.247zm24.092 7.895L67.817 25h9.89l-2.082 11.053h9.37c8.328.526 11.452 4.736 10.41 10l-3.643 21.58h-10.41l3.643-19.475c.52-2.632.52-4.21-3.124-4.21h-7.808L69.38 67.63h-9.89zm31.606 11.052l8.33-42.63h19.26c8.328.525 12.492 4.735 12.492 12.104 0 12.63-9.89 20-18.74 19.474h-9.37l-2.082 11.052h-9.89zM76 95c41.974 0 76-17.91 76-40s-34.026-40-76-40S0 32.91 0 55s34.026 40 76 40zm29.15-35.263l2.603-15.79h6.768c3.644 0 6.247 1.58 6.247 4.737-.52 8.948-4.685 10.527-9.37 11.053h-6.246z" fill="#8e8e8e"/></svg>