<svg viewBox="0 0 136 100" xmlns="http://www.w3.org/2000/svg"><path fill="#8e8e8e" d="M117.075 57.423c-4.755.026-8.872 1.146-12.326 2.814-1.276-2.475-2.55-4.638-2.763-6.254-.24-1.876-.532-3.023-.24-5.264.293-2.242 1.62-5.42 1.62-5.682-.026-.234-.292-1.38-3.028-1.407-2.736-.025-5.1.522-5.367 1.226a29.49 29.49 0 0 0-1.142 3.987c-.477 2.45-5.47 11.127-8.314 15.687-.93-1.772-1.726-3.335-1.886-4.586-.24-1.876-.53-3.023-.24-5.264.293-2.24 1.622-5.42 1.622-5.68-.027-.235-.293-1.382-3.03-1.408-2.735-.026-5.1.52-5.365 1.225-.265.704-.557 2.37-1.142 3.987-.558 1.616-7.2 16.104-8.926 19.883a79.82 79.82 0 0 1-2.206 4.508c-.558 1.042-.026.078-.08.182l-.743 1.38v.028c-.37.65-.77 1.276-.956 1.276-.133 0-.398-1.745.053-4.142.983-5.03 3.374-12.873 3.348-13.16 0-.13.45-1.51-1.54-2.214-1.94-.704-2.63.47-2.79.47-.16 0-.293.416-.293.416s2.152-8.834-4.117-8.834c-3.932 0-9.35 4.195-12.034 8.026-1.7.912-5.312 2.84-9.138 4.9-1.46.78-2.975 1.615-4.41 2.37l-.29-.313C23.75 57.63 9.7 52.002 10.284 41.32c.212-3.884 1.594-14.125 26.99-26.53C58.075 4.63 74.73 7.417 77.627 13.62c4.117 8.86-8.9 25.33-30.523 27.7-8.235.913-12.566-2.214-13.654-3.387-1.143-1.224-1.302-1.276-1.727-1.04-.69.363-.266 1.458 0 2.11.637 1.64 3.294 4.56 7.81 6.02C43.49 46.295 53.16 47 64.85 42.57c13.096-4.978 23.323-18.79 20.32-30.333C82.117.485 62.247-3.373 43.465 3.17 32.28 7.076 20.167 13.174 11.454 21.174 1.094 30.66-.554 38.947.137 42.387 2.555 54.66 19.795 62.66 26.702 68.577c-.346.18-.664.363-.957.52-3.453 1.668-16.603 8.417-19.897 15.557-3.72 8.078.585 13.89 3.454 14.67 8.872 2.425 17.958-1.927 22.872-9.093 4.888-7.165 4.304-16.468 2.046-20.716l-.08-.156 2.71-1.564a163.72 163.72 0 0 1 4.993-2.762c-.85 2.267-1.46 4.95-1.78 8.86-.37 4.586 1.542 10.527 4.065 12.873 1.116 1.016 2.444 1.042 3.268 1.042 2.922 0 4.25-2.372 5.71-5.212 1.808-3.466 3.402-7.48 3.402-7.48s-1.993 10.868 3.453 10.868c1.993 0 3.986-2.528 4.89-3.83v.025s.052-.078.158-.26a9.39 9.39 0 0 0 .32-.495v-.052c.796-1.354 2.576-4.455 5.232-9.59 3.427-6.618 6.72-14.904 6.72-14.904s.32 2.032 1.303 5.368c.584 1.98 1.86 4.143 2.842 6.254a102.64 102.64 0 0 1-1.275 1.72l.027.026a74.236 74.236 0 0 1-2.1 2.606c-2.708 3.18-5.95 6.8-6.374 7.844-.505 1.224-.4 2.136.584 2.866.717.52 1.992.625 3.347.52 2.444-.155 4.144-.754 4.994-1.12a17.418 17.418 0 0 0 4.304-2.214c2.656-1.928 4.277-4.665 4.117-8.313-.08-2.006-.744-3.987-1.568-5.863.24-.34.48-.678.717-1.042 4.197-6.02 7.438-12.64 7.438-12.64s.318 2.034 1.3 5.37c.506 1.693 1.515 3.543 2.42 5.368-3.933 3.153-6.404 6.8-7.254 9.198-1.567 4.43-.345 6.437 1.966 6.906 1.036.208 2.524-.26 3.64-.73 1.38-.443 3.054-1.2 4.595-2.32 2.657-1.927 5.207-4.61 5.074-8.234-.08-1.667-.532-3.31-1.143-4.873 3.347-1.355 7.677-2.136 13.176-1.485 11.82 1.355 14.16 8.6 13.708 11.622-.45 3.023-2.92 4.69-3.745 5.212-.824.495-1.09.678-1.01 1.042.107.548.48.522 1.196.418.984-.157 6.217-2.476 6.43-8.052.318-7.167-6.615-14.985-18.915-14.907zm-91.17 30.15C22 91.768 16.5 93.358 14.163 92.003c-2.523-1.434-1.54-7.61 3.268-12.065 2.923-2.71 6.722-5.212 9.22-6.75.557-.338 1.407-.833 2.416-1.433.16-.104.266-.156.266-.156.186-.105.398-.236.61-.366 1.78 6.358.08 11.935-4.037 16.34zm28.557-19.05c-1.355 3.258-4.224 11.623-5.95 11.154-1.488-.39-2.39-6.723-.293-12.977 1.062-3.154 3.32-6.906 4.648-8.365 2.152-2.346 4.49-3.127 5.074-2.163.69 1.25-2.63 10.32-3.48 12.352zm23.563 11.05c-.584.287-1.116.495-1.355.34-.186-.105.24-.496.24-.496s2.948-3.1 4.117-4.535c.664-.833 1.46-1.797 2.31-2.892v.313c0 3.752-3.665 6.253-5.312 7.27zm18.17-4.065c-.425-.313-.372-1.277 1.063-4.3.558-1.2 1.833-3.205 4.038-5.108.265.782.425 1.538.398 2.24-.026 4.692-3.427 6.438-5.5 7.168z"/></svg>