<svg xmlns="http://www.w3.org/2000/svg" viewBox="0 0 100 100"><path class="inner-shape" d="M58.13 73.687L32.6 73.7l-.002-5.453 25.528-.013.003 5.453zM75.38 42.81l-4.37-25.15-5.372.933 4.366 25.15 5.373-.932zM58.743 61.245l-25.42-2.342-.5 5.43 25.42 2.34.5-5.428zm1.677-7.114l-24.65-6.628-1.416 5.265 24.653 6.627 1.416-5.265zm3.218-6.237L41.65 34.923l-2.77 4.697 21.99 12.97 2.768-4.697zm5.392-3.82l-14.383-21.09-4.505 3.072 14.383 21.09 4.505-3.07zm-6.566 11.68v22.29H28.982v-22.29h-4.36V82.32h.043c0 .02 1.272.02 1.272.02h40.845v-.02c.043 0 .043-1.274.043-1.274V55.753h-4.36z" fill="#fff"/></svg>