<svg viewBox="0 0 16 16" xmlns="http://www.w3.org/2000/svg" fill-rule="evenodd" clip-rule="evenodd" stroke-linejoin="round" stroke-miterlimit="1.414"><path d="M13.7 4.627a4.634 4.634 0 0 1-1.32.362 2.31 2.31 0 0 0 1.01-1.273 4.613 4.613 0 0 1-1.46.557A2.297 2.297 0 0 0 8.016 6.37a6.53 6.53 0 0 1-4.735-2.4c-.2.338-.31.733-.31 1.155 0 .798.405 1.5 1.02 1.912a2.295 2.295 0 0 1-1.04-.287v.028a2.3 2.3 0 0 0 1.843 2.254 2.335 2.335 0 0 1-1.037.04 2.3 2.3 0 0 0 2.147 1.596 4.614 4.614 0 0 1-3.402.95 6.512 6.512 0 0 0 3.523 1.033c4.227 0 6.538-3.5 6.538-6.536 0-.1-.002-.2-.006-.297a4.67 4.67 0 0 0 1.147-1.19z" fill="#fff" fill-rule="nonzero"/></svg>